<svg xmlns="http://www.w3.org/2000/svg" width="320" height="318" version="1" viewBox="0 0 3200 3180">
  <g fill="#0c0c0c">
    <path d="M2097 3085c124-40 309-137 297-157-3-5-11-5-19 2-7 6-19 8-27 5s-26 5-41 19c-14 13-28 22-31 19s-20 4-39 16c-19 11-38 21-43 21-11 0 38-39 49-40 31-1 252-172 252-195 0-7 36-49 80-92 120-117 202-233 165-233-5 0-10 4-10 10 0 20-93 141-133 172-23 18-45 38-50 45-4 7-23 15-41 19-19 3-64 30-102 61-84 66-106 80-98 58 10-25-10-18-102 35s-99 56-89 40c11-17-20-11-80 15-32 14-59 24-61 22-10-9 32-49 83-77 102-57 293-192 293-207 0-13-33 3-79 38-89 68-243 139-256 119-3-4 19-23 49-41 89-56 208-145 294-218 44-38 83-67 88-63 4 4 4 2 1-4-4-7 3-24 14-38 12-15 18-30 15-33-4-4-14 4-23 18-10 13-42 48-73 77-81 77-320 233-320 209 0-3 24-22 53-43 28-21 77-63 109-94 31-31 62-54 69-51 7 2 10-2 6-11-3-9 0-21 6-27 8-8 8-11-1-11-7 0-48 36-92 81-49 50-84 78-91 73-7-4-9-3-6 3 4 7-8 14-31 18-20 4-53 16-72 27-43 26-28 10 21-23 47-31 139-109 139-118 0-4 47-55 105-114 107-109 193-227 245-339 15-33 30-54 32-47 3 10 9 6 17-10 12-21 11-23-3-18-20 8-20 12 3-64 35-115 44-210 38-377-5-124-12-177-33-252-29-105-90-267-109-290-7-8-14-24-17-35-12-49-199-257-222-247-4 1-31-16-62-39-144-106-421-156-638-114-73 14-240 74-281 102-11 7-24 13-29 13-14 0 17-21 84-56 30-16 57-31 60-35 10-11 116-49 172-61 71-16 80-34 13-29-27 2-58 4-67 5-9 0-14 4-12 8 3 4-5 9-18 10-36 2-42 3-53 10-5 3-27 9-48 12-35 6-37 5-23-10 33-32 7-45-48-24-14 5-26 6-26 1 0-4 26-15 58-24 69-19 104-42 84-55-8-5-13-12-12-16 6-25-9-29-51-13-45 17-92 23-54 7l20-9-20-1c-16 0-14-3 10-15 17-8 43-19 58-25 16-5 25-14 22-20-3-5 3-10 14-10 24 0 36-16 19-23-7-3-4-6 7-7s31-4 45-7c14-4 90-7 170-7 110-1 165 4 227 18 45 11 80 22 78 27-3 4 5 5 17 1 11-3 19-1 16 4-4 5 10 9 30 9 21 1 51 7 67 14 142 62 180 81 178 89-1 6 6 8 15 5 10-2 26 5 36 16 11 12 23 21 27 21 8 0 46 24 139 87 47 31 89 76 83 87-3 6-3 8 1 4 11-9 57 33 49 45-3 6-2 7 4 4 13-8 97 82 123 133 11 22 23 40 25 40 13 0 2-31-28-81-18-30-40-65-48-79-29-50-105-146-157-198-29-30-50-58-46-64s3-8-3-5c-6 4-41-11-77-33s-70-40-75-40c-6 0-13-4-16-10-4-6 2-7 17-1 48 18 118 54 124 62 3 5 12 9 20 9s32 12 54 26c22 15 43 24 47 20 3-3 15 2 26 11 19 17 19 17 13-4-8-24 11-26 38-4 8 7 20 10 26 6 5-3 10 0 10 8s9 22 20 32 17 23 13 29c-3 6-3 8 2 4 21-19 155 168 234 327 103 209 143 363 166 650 10 125 12 191 4 232-14 83-58 268-80 337-10 32-16 62-14 67 8 12-25 91-48 116-11 12-17 29-14 37 4 9 2 16-3 16-6 0-10 9-10 19 0 11-5 23-10 26-6 4-19 24-31 46-24 48-73 114-142 192-29 32-52 62-52 66 0 15-87 91-111 97-13 3-24 12-24 18 0 13-54 57-73 60-25 4-57 27-57 41 0 8-6 15-14 15s-28 11-44 25c-17 14-39 25-51 25-19 0-57 16-71 30-9 9-195 70-210 69-8 0 17-11 57-24zm143-505c0-5-2-10-4-10-3 0-8 5-11 10-3 6-1 10 4 10 6 0 11-4 11-10zm458-685c-3-3-9 2-12 12-6 14-5 15 5 6 7-7 10-15 7-18zm107-35c-3-5-11-10-16-10-6 0-7 5-4 10 3 6 11 10 16 10 6 0 7-4 4-10zm5-100c0-5-4-10-10-10-5 0-10 5-10 10 0 6 5 10 10 10 6 0 10-4 10-10zm-40-64c0-3-4-8-10-11-5-3-10-1-10 4 0 6 5 11 10 11 6 0 10-2 10-4zm54-91c-4-8-10-15-15-15s-9 7-9 15 7 15 15 15c9 0 12-6 9-15zm-9-135c3-5-1-10-10-10s-13 5-10 10c3 6 8 10 10 10s7-4 10-10zm-305-425c-7-9-15-13-17-11-7 7 7 26 19 26 6 0 6-6-2-15zm-81-187c-13-18-25-26-27-19-4 13 25 51 40 51 5 0-1-14-13-32zm-49-37c0-11-90-101-101-101-4 0-7 9-6 19 0 11 4 18 8 15 4-2 26 14 50 36 49 44 49 44 49 31zm116-90c-10-11-15-24-11-30 3-7 0-8-9-5s-16 9-16 12c0 10 33 42 43 42 6 0 2-9-7-19zm-79-70c0-11-4-18-8-15-11 6-31-24-24-36 5-8 12-7 23 2 15 12 16 11 3-5-10-13-17-15-27-6-16 13-37 2-28-13 4-6 2-8-3-5-13 8-65-31-58-44 4-5-2-6-11-2-13 5-15 3-9-7 5-8 4-11-2-7s-21-1-34-11c-48-34-90-53-122-54-33-1-117-32-117-44 0-3 7-3 16 0s12 2 9-5c-4-6-14-8-22-5s-38 0-66-8c-29-8-69-17-90-21-21-3-36-9-33-13 2-4-38-6-90-4s-94 7-94 11c0 9 58 21 105 21 24 0 27 2 15 10-11 8-8 9 12 4 17-4 35 0 50 10 12 9 43 16 68 16s56 3 69 7c23 6 24 7 5 14-11 5-3 6 20 2 26-4 37-2 32 5-3 6-1 14 5 18 8 5 9 3 4-6-6-10-4-12 8-7 8 3 31 9 51 12 19 4 40 13 47 21 6 8 17 14 24 14s18 6 24 14c7 8 29 22 49 32 44 20 169 102 178 115 9 16 23 10 21-10zm-870-97c-3-3-12-4-19-1-8 3-5 6 6 6 11 1 17-2 13-5zm668-94c3-6-1-7-9-4-18 7-21 14-7 14 6 0 13-4 16-10zm-338-26c-3-3-12-4-19-1-8 3-5 6 6 6 11 1 17-2 13-5zm273-4c0-5-2-10-4-10-3 0-8 5-11 10-3 6-1 10 4 10 6 0 11-4 11-10zm-805-40c3-6-1-7-9-4-18 7-21 14-7 14 6 0 13-4 16-10zm682-16c-3-3-12-4-19-1-8 3-5 6 6 6 11 1 17-2 13-5zm-150-40c-3-3-12-4-19-1-8 3-5 6 6 6 11 1 17-2 13-5zm-77-14c0-5-8-10-17-10-15 0-16 2-3 10 19 12 20 12 20 0zm-103-16c-3-3-12-4-19-1-8 3-5 6 6 6 11 1 17-2 13-5z"/>
    <path d="M2106 3045c10-8 23-15 28-15 6 0 1 7-10 15-10 8-23 15-28 15-6 0-1-7 10-15zm-1112-24c-58-21-116-60-108-72 3-5-1-7-8-4-16 5-123-66-123-82 0-6-4-15-9-20s-6-3-2 5c14 25-17 11-50-22-24-24-32-39-27-52s3-16-9-11c-10 3-23-3-35-16-18-21-18-21 2-7 19 15 19 15 0-12-20-27-53-40-39-15 4 6-9-4-29-22-36-34-47-48-28-36 5 3 13 0 17-6 4-8 9-7 16 2 8 11 8 11 4-1-3-8-9-23-12-32-4-12-17-18-35-18-31 0-36-9-17-28 9-9 8-12-5-12-9 0-17-7-17-15s-5-15-11-15c-5 0-8-4-5-9 4-5-4-7-16-3-21 5-22 4-8-13s13-18-3-12c-10 4-20 7-23 7-2 0 0 7 3 17 4 11 3 14-5 9-19-12-14 6 11 34 12 14-4-1-35-35-32-33-55-66-53-72 2-7-1-12-8-10-7 1-11-6-9-15 1-9-3-20-9-24-8-5-10-2-4 7 4 8-4 1-19-16-37-44-120-206-101-199 21 8 18-3-15-66-19-36-29-48-30-35-1 14-6 9-15-15-7-19-11-46-8-59 4-15 2-22-5-17-6 4-8-2-4-16 6-20 8-18 16 15 5 20 13 37 18 37 4 0 8 5 8 10 0 18 30 83 36 78 5-6-28-138-61-243-8-27-17-90-19-140-3-59-2-75 3-45l7 45 5-35c2-19 9-34 15-33 13 3 7-34-7-43-5-3-9-15-8-27 1-20 2-20 9 3 5 17 8 19 9 8 1-10 9-18 19-18 12-1 9-5-10-16-36-19-36-26-1-19 25 5 26 4 8-5-12-6-28-27-36-47-13-30-14-46-4-102 6-36 17-76 23-88 7-12 12-32 12-45 0-19 2-20 11-8s10 11 6-8c-3-12-1-22 4-22s9-9 9-21c0-11 3-18 8-16 4 3 8-5 8-16 5-60 7-75 21-115 8-23 18-40 23-37 11 7 24-12 50-78 12-32 25-56 27-53 2 2-2 19-10 37-8 19-17 63-20 99l-7 65 21-53c12-29 23-51 26-49 2 3-3 22-11 42-17 41-20 65-8 65 13 0 44-60 39-75-3-7 1-16 9-19s14-12 14-20 5-18 10-21c6-4 0 18-12 47-55 136-89 250-86 291 4 40 4 41 15 17 7-14 12-18 13-10 0 13 1 13 10 0 5-8 10-22 10-30 0-13-2-13-11 0-13 17-14 25 22-88 12-39 28-72 33-72 6 0 19-17 28-38 10-20 15-28 12-17-4 11-17 58-30 105-12 47-23 85-23 85-2 0-21 59-21 66 0 23 19 6 25-23 4-18 11-37 15-43 4-5 13-36 20-67 8-41 20-65 41-85 16-15 29-33 29-39 0-5 7-19 15-30 13-16 13-14-1 19-8 22-13 44-11 50 2 7 0 22-4 35-5 13-11 39-13 58-4 32-3 34 17 28 12-4 24-10 27-14s12-10 20-13c11-4 10-6-5-6-14-1-16-4-8-12 6-6 9-18 6-25-3-9 0-12 9-9 9 4 19-3 27-17l12-23-5 23c-5 26 9 30 18 5 4-11 1-22-8-29-9-6-16-15-16-19s6-2 14 4c14 12 29-2 63-55 8-14 11-15 10-4-1 8 3 16 8 18 6 1 10-1 10-5 2-19 17-52 23-51 4 1 16-3 27-9 31-17 40-16 46 9 7 30-30 96-42 76-12-17-26 4-35 50-3 18-12 32-20 32s-14 7-14 15-4 15-9 15-14 30-21 67c-7 38-19 77-26 88-18 25-18 49-1 39 6-4 5 1-4 12-22 26-28 67-13 82 19 18 34 15 27-5-4-13-3-15 5-8 6 6 14 55 16 110 3 55 3 91 0 80s-11-24-16-30c-17-16-1 132 21 203 13 43 15 62 7 65s-8 10 2 26c6 11 12 28 12 36s5 15 10 15c6 0 10-8 10-17 0-10 14 5 30 34s37 56 47 61c15 9 15 12 3 28-8 10-10 15-3 11 12-8 29 10 20 20-3 3-17-7-32-22-43-47-40-19 3 38 39 50 92 99 151 139 14 10 21 18 16 18-6 0-15-4-20-9-6-5-28-14-50-21-47-15-77-38-68-53 3-5 1-7-4-4-10 6-76-72-102-121-17-31-34-17-26 21l7 32-26-35c-14-19-33-50-41-67-15-32-43-48-32-19 17 43 28 100 22 114-3 9-3 14 0 10 9-8 45 23 45 38 0 17 39 62 40 45 0-8 13 11 29 41 29 54 88 121 116 132 8 3 15 10 15 16 0 5 9 10 20 10 24 0 62 17 119 52 51 32 66 35 57 13-3-9 0-15 8-15 7 0 19 7 26 15s26 15 42 15 39 5 50 11c15 8 22 8 28-1s15-8 38 4c17 9 35 16 39 15 56-9 150 62 200 152 16 27 31 49 36 49 14 0 7 95-11 126-39 70-65 104-99 130-30 23-47 27-111 30-45 2-78 8-82 15-13 20-110 21-166 0zm-264-185c0-2-7-7-16-10-8-3-12-2-9 4 6 10 25 14 25 6zm-36-44c3-5-1-9-9-9s-12 4-9 9c3 4 7 8 9 8s6-4 9-8zm-105-114c1 7 6 10 12 7 15-10 6-16-31-20-32-4-32-4-14 16 17 19 19 19 25 2 4-10 8-12 8-5zm-202-176c-10-10-14-22-10-27 5-4 2-5-5-1-11 6-10 12 4 27 9 10 19 19 22 19s-2-8-11-18zm-10-67c-15-16-19-13-11 9 3 9 10 13 15 10s3-11-4-19zm-236-558c-10-9-11-8-5 6 3 10 9 15 12 12s0-11-7-18zm399-13c0-8-5-12-10-9-6 4-8 11-5 16 9 14 15 11 15-7zm71-17c-8-8-11-7-11 4 0 20 13 34 18 19 3-7-1-17-7-23zm-235-53c-3-8-9-14-14-14-9 0-5 54 6 80 8 19 16-46 8-66zm-81 56c3-5 1-10-4-10-6 0-11 5-11 10 0 6 2 10 4 10 3 0 8-4 11-10zm102-32c-3-8-6-5-6 6-1 11 2 17 5 13 3-3 4-12 1-19zm-94-12c4-10 1-13-8-9-8 3-12 9-9 14 7 12 11 11 17-5zm147-25c0-6-4-13-10-16-5-3-10 1-10 9 0 9 5 16 10 16 6 0 10-4 10-9zm-153-43c-3-8-6-5-6 6-1 11 2 17 5 13 3-3 4-12 1-19zm-143-16c-6-4-14-14-17-22-4-10-6-8-6 8-1 15 5 22 17 22 10 0 13-3 6-8zm104-69c-5-26-33-28-35-3-1 14 4 20 18 20s19-6 17-17zm150-98c-3-3-9 2-12 12-6 14-5 15 5 6 7-7 10-15 7-18zm82 5c0-5-5-10-11-10-5 0-7 5-4 10 3 6 8 10 11 10 2 0 4-4 4-10zm-288-56c-2-11-4-27-5-36-1-12-5-14-11-8-7 7-7 16 0 28 9 14 7 17-12 18-25 2-33-11-11-19 6-2 8-8 4-13-9-10-27 14-27 37 0 13 8 16 33 14s31-7 29-21zm328 22c0-3-4-8-10-11-5-3-10-1-10 4 0 6 5 11 10 11 6 0 10-2 10-4zm-75-16c3-5 1-10-4-10-6 0-11 5-11 10 0 6 2 10 4 10 3 0 8-4 11-10zm-32-24c3-7 1-18-4-23-7-7-5-12 5-16 9-4 17 1 21 14 7 21 20 25 30 9 3-5-1-10-10-10s-13-5-10-11c4-6 9-8 13-5 3 3 11-2 18-12 9-12 9-21 2-30-9-11-13-11-19 0-7 11-9 11-9 0 0-7-4-10-10-7-9 5-15-15-11-37 0-5-6-8-14-8s-15 4-15 9c0 13 27 62 34 62 23-3 38 0 33 5-12 12-57 12-57 1 0-7-6-5-14 3-9 9-12 26-9 43 6 29 18 35 26 13zm-287-21c14-13 14-17 1-30-13-12-15-11-19 15-5 34-3 36 18 15zm14-85c0-5-4-10-10-10-5 0-10 5-10 10 0 6 5 10 10 10 6 0 10-4 10-10zm356-15c-2-7 0-17 5-22 7-7 5-12-5-16s-20 1-26 13c-13 24-13 33 0 25 6-3 10 1 10 10s5 13 11 10c6-4 8-13 5-20zm-36-56c0-9-7-19-15-23-8-3-15-1-15 4 0 6 5 10 10 10 6 0 10 5 10 10 0 6-3 9-7 9-20-3-24 2-13 16 11 13 15 13 21 3 5-7 9-20 9-29zm-262-24c-3-3-9 2-12 12-6 14-5 15 5 6 7-7 10-15 7-18zm340-63c2-7-2-10-12-6-9 3-16 11-16 16 0 13 23 5 28-10zm59-44c-3-8-6-5-6 6-1 11 2 17 5 13 3-3 4-12 1-19zm-240-10c-3-8-6-5-6 6-1 11 2 17 5 13 3-3 4-12 1-19zm193 10c0-4-4-8-9-8-6 0-12 4-15 8-3 5 1 9 9 9s15-4 15-9zm50-59c0-28-2-30-16-18-9 8-12 15-6 17s8 10 5 18 0 14 6 14 11-14 11-31zm70-41c0-4-4-8-9-8-6 0-12 4-15 8-3 5 1 9 9 9s15-4 15-9zm1470 1948c0-2 7-7 16-10 8-3 12-2 9 4-6 10-25 14-25 6zm-146-291c40-27 46-29 46-17 0 8-63 42-77 42-3 0 11-11 31-25zm448 9c10-10 20-16 22-13 3 3-5 11-17 18-21 13-21 12-5-5z"/>
    <path d="M455 2550c-3-5-1-10 4-10 6 0 11 5 11 10 0 6-2 10-4 10-3 0-8-4-11-10zm1933-344c26-41 49-73 50-71 5 4-86 145-92 145-3 0 16-33 42-74zM85 1921c-7-12-25-194-23-241 0-20 4-7 8 30 15 121 18 147 25 183s3 47-10 28zm2467-271c0-14 2-19 5-12 2 6 2 18 0 25-3 6-5 1-5-13zm-2449-50c0-30 2-43 4-27 2 15 2 39 0 55-2 15-4 2-4-28zm607-362c0-9 5-20 11-23 17-11 18-2 3 19-12 17-14 17-14 4zm-240-27c0-6 4-13 10-16s7 1 4 9c-7 18-14 21-14 7zm260-21c0-5 5-10 11-10 5 0 7 5 4 10-3 6-8 10-11 10-2 0-4-4-4-10zm-239-26c0-11 3-14 6-6 3 7 2 16-1 19-3 4-6-2-5-13zm249-4c0-19 58-125 95-176 21-27 60-73 89-102 54-56 142-130 116-98-8 11-14 22-13 25s-5 5-14 3c-8-2-12 1-9 6 6 11-53 74-64 67s-31 20-22 29c4 4 0 6-8 4s-14 2-15 7c-1 19-26 55-35 52-12-3-80 103-80 125 0 10-4 18-10 18-5 0-10 9-10 19 0 11-4 23-10 26-5 3-10 1-10-5zm236-312l29-33-32 29c-31 28-38 36-30 36 2 0 16-15 33-32zm-466 256c0-6 7-19 16-30 14-18 14-18 3 6-14 31-19 36-19 24zm60-16c0-11 69-128 76-128 2 0-4 16-13 35s-20 35-25 35c-4 0-8 6-8 13-1 12-30 57-30 45zm-70-73c0-5 10-21 21-35 13-17 17-18 10-5-17 33-31 51-31 40zm159-34c6-10 8-28 6-41-4-19-2-20 12-8 12 9 15 10 9 0-4-7 1-23 13-38s21-22 21-16-5 14-10 17c-6 4-9 12-8 18 2 7-8 29-20 50-24 38-41 52-23 18zm39-6c38-50 72-104 72-113 0-5 12-19 28-33l27-24-20 25c-27 34-58 90-52 96 7 7 23-17 34-51 6-17 16-29 24-27s11 0 6-4c-4-4 7-24 25-43 29-32 30-33 4-11-16 14-27 19-24 11 2-8 16-24 31-35l26-19 19 23 19 24 17-26c10-15 24-29 33-32 8-4 1 10-16 29-17 20-31 39-31 43s-11 12-25 19c-14 6-23 7-20 3 3-5 1-12-5-15-7-4-10 3-8 22s-1 27-10 25c-8-1-11 1-8 6 9 15-87 109-109 106-11-2-28 5-39 14-17 14-16 12 2-13zm72 16c0-6 4-13 10-16s7 1 4 9c-7 18-14 21-14 7zm-205-85c10-14 19-26 22-26 7 0-17 39-28 46-6 3-3-5 6-20zm76-31c0-13 16-37 40-60 23-22 38-33 33-25-4 8-20 25-35 38-15 12-30 33-32 45-4 20-4 20-6 2zm85-14c-3-5 6-16 20-26 25-16 25-16 15 4-14 25-28 34-35 22zm50-58c-3-4-6-11-6-17 0-7 3-6 8 1 6 9 11 7 20-7 9-15 9-20 0-20-6 0-2-9 10-20 12-12 22-25 22-30 0-6 3-9 8-9 4 1 10 0 15-1 4-1 13-3 20-4 7 0 11-13 11-29-1-15 1-25 4-22s12-1 21-9 19-15 24-15c4-1 7-3 7-6 0-28-2-38-7-28-2 7-22 23-44 35-21 12-39 25-39 30 0 4-10 8-22 9-13 0-17 3-10 6 6 2 12 9 12 14 0 6-5 7-10 4-10-6-65 31-64 43 0 4-8 16-19 27-18 20-18 20-5-10 13-31 58-86 58-72 0 4 14-8 31-27 20-23 36-33 46-29s14 2 10-4c-14-22 76-79 107-67 8 3 17 1 21-5 4-7-1-8-12-4-43 15 6-16 57-37 30-12 66-27 80-33 43-19 46-20 22-2-13 9-34 20-47 24-16 4-22 10-17 18 6 10 14 9 36-3 16-8 30-13 32-11 9 9-97 56-112 50-11-4-15-3-10 5 3 6 1 14-5 18-8 4-9 3-5-4 10-16-6-15-30 2-11 8-23 11-29 6-7-6-11 0-13 17-2 23 0 24 16 12 22-18-31 45-118 138-37 40-70 69-74 66zm59-63c10-11 16-20 13-20s-13 9-23 20-16 20-13 20 13-9 23-20zm86-92c11-21 11-22-4-9-10 7-17 17-17 22 0 15 9 10 21-13zm-70-15c13-16 12-17-3-4-10 7-18 15-18 17 0 8 8 3 21-13zm69-55c0-12-6-9-26 13-19 22-19 22 4 8 12-8 22-17 22-21zm160-48c11-7 11-10 2-10-7 0-10-5-6-11 4-8 0-7-15 1-12 6-19 15-16 21 8 11 16 11 35-1z"/>
    <path d="M902 755c2-13-2-19-12-17-8 1-4-6 9-17 37-28 58-15 29 18-13 14-25 28-26 31-2 3-2-4 0-15zm23-25c3-5 1-10-4-10-6 0-11 5-11 10 0 6 2 10 4 10 3 0 8-4 11-10zm172 24c-3-5 3-15 14-22 16-10 19-9 19 4 0 8-4 13-9 10-5-4-11-1-13 6-3 7-7 8-11 2zm54-28c2-2 15-9 29-15 24-11 24-11 6 3-16 13-49 24-35 12zM655 590c17-19 31-37 33-39 1-2 4-2 7 1 3 2-12 20-33 39l-37 34 30-35zm-98-7c5-11 3-14-6-8-10 6-11 3-2-13 7-14 17-18 31-15 21 6 21 6-1 29-27 28-31 30-22 7zm183-72c0-5 7-12 16-15 14-5 15-4 4 9-14 17-20 19-20 6zm30-35c0-2 8-10 18-17 15-13 16-12 3 4s-21 21-21 13zm576-18c4-6-2-8-17-4-17 5-20 4-9-2 31-19 57-23 57-8 0 8-9 17-19 19-10 3-15 1-12-5zm299-268c17-4 44-8 60-8h30l-30 8c-16 4-43 8-60 8h-30l30-8zm-217-27c7-3 16-2 19 1 4 3-2 6-13 5-11 0-14-3-6-6zm178-32c-8-13 37-26 59-17 9 3 13 2 10-4-7-12 60-12 90-1 15 6 10 9-25 14-25 3-64 9-86 13-26 4-44 2-48-5z"/>
  </g>
</svg>
